<svg version="1" xmlns="http://www.w3.org/2000/svg" width="346.667" height="346.667" viewBox="0 0 260.000000 260.000000"><path d="M155 61.7c-6.6.7-20.4 4.5-28.1 7.8-16.9 7.1-37.7 23.2-42.4 32.9-5.7 11.6-3.8 27.5 4.5 36.8 6.1 7 25.2 15.5 49.1 21.8 10.1 2.8 16.6 5.9 20.8 10 3.8 3.8 3.9 6.2.5 8.9-2.1 1.7-4.1 2.1-9.3 2.1-6.7 0-8.6-.6-37.1-10.8-17.8-6.4-42.3-6.9-47.7-1-1.4 1.6-1.8 3.6-1.8 9.2v7.1l5-.2c2.8-.1 10.9-.3 18-.5l13-.3 15.5 6.2c19.9 7.9 22.8 8.6 34.7 8.1 16-.8 27.4-6.5 32.3-16.3 2-4.1 2.5-6.9 2.8-15 .4-9.9.3-10.2-2.4-13.5-3.6-4.2-15.5-9.9-36.9-17.5-19.6-7-37.5-14.5-37.5-15.7 0-2.7 4.7-9.2 9.9-14 6.5-5.8 19-12.6 28.1-15.1 6.2-1.8 16-3.6 16-3 0 .2-2.5 5.3-5.5 11.3-3 6-6.4 14.1-7.4 18l-2 7.1 6.2 2.9c3.4 1.6 8.7 3.2 11.8 3.6l5.5.6 1.3-6.8c.7-4.1 4.2-13.3 8.8-23.8 7.3-16.4 7.6-17.4 7.7-24.8.1-7.3-.1-7.9-2.9-10.7-5-5-16.3-6.9-30.5-5.4z"/></svg>